<?xml version="1.0" encoding="UTF-8"?>
<svg id="Layer_2" data-name="Layer 2" xmlns="http://www.w3.org/2000/svg" viewBox="0 0 205.41 53.86">
  <defs>
    <style>
      .cls-1 {
        fill: #1d1d1d;
      }

      .cls-2 {
        fill: #dd4083;
      }
    </style>
  </defs>
  <g id="Layer_6" data-name="Layer 6">
    <g>
      <path class="cls-1" d="M36.29,45.58h-16.99l-2.52,7.7H0L18.65,2.3h18.43l18.58,50.98h-16.85l-2.52-7.7ZM32.4,33.55l-4.61-14.18-4.61,14.18h9.22Z"/>
      <path class="cls-1" d="M55.29,21.85c1.46-3.14,3.47-5.54,6.01-7.2,2.54-1.66,5.4-2.48,8.57-2.48,2.64,0,4.91.54,6.8,1.62,1.9,1.08,3.35,2.56,4.36,4.43V0h15.98v53.28h-15.98v-5.54c-1.01,1.87-2.46,3.35-4.36,4.43-1.9,1.08-4.16,1.62-6.8,1.62-3.17,0-6.02-.83-8.57-2.48-2.54-1.66-4.55-4.05-6.01-7.2-1.46-3.14-2.2-6.85-2.2-11.12s.73-7.98,2.2-11.12ZM79.45,27.94c-1.1-1.2-2.52-1.8-4.25-1.8s-3.14.6-4.25,1.8c-1.1,1.2-1.66,2.88-1.66,5.04s.55,3.84,1.66,5.04c1.1,1.2,2.52,1.8,4.25,1.8s3.14-.6,4.25-1.8c1.1-1.2,1.66-2.88,1.66-5.04s-.55-3.84-1.66-5.04Z"/>
      <path class="cls-1" d="M122.17,14.51c2.35-1.42,4.8-2.12,7.34-2.12v17.06h-4.54c-3.02,0-5.25.53-6.66,1.58-1.42,1.06-2.12,2.93-2.12,5.62v16.63h-15.98V12.67h15.98v7.49c1.63-2.35,3.62-4.24,5.98-5.65Z"/>
      <path class="cls-2" d="M130.06,51.62c-1.68-1.49-2.52-3.36-2.52-5.62s.84-4.21,2.52-5.72c1.68-1.51,3.91-2.27,6.7-2.27s4.94.76,6.62,2.27c1.68,1.51,2.52,3.42,2.52,5.72s-.84,4.13-2.52,5.62c-1.68,1.49-3.89,2.23-6.62,2.23s-5.02-.74-6.7-2.23Z"/>
      <path class="cls-1" d="M164.79,12.67v40.61h-15.98V12.67h15.98Z"/>
      <path class="cls-1" d="M177.87,51.91c-2.95-1.25-5.29-2.98-7.02-5.18-1.73-2.21-2.71-4.7-2.95-7.49h15.34c.19,1.2.71,2.09,1.55,2.66.84.58,1.91.86,3.2.86.82,0,1.46-.18,1.94-.54.48-.36.72-.8.72-1.33,0-.91-.5-1.56-1.51-1.94-1.01-.38-2.71-.82-5.11-1.3-2.93-.58-5.34-1.2-7.24-1.87-1.9-.67-3.55-1.82-4.97-3.46-1.42-1.63-2.12-3.89-2.12-6.77,0-2.5.66-4.76,1.98-6.8,1.32-2.04,3.28-3.65,5.87-4.82,2.59-1.18,5.74-1.76,9.43-1.76,5.47,0,9.76,1.34,12.85,4.03,3.1,2.69,4.96,6.19,5.58,10.51h-14.18c-.24-1.1-.74-1.96-1.51-2.56-.77-.6-1.8-.9-3.1-.9-.82,0-1.44.16-1.87.47-.43.31-.65.78-.65,1.4,0,.82.5,1.43,1.51,1.84,1.01.41,2.62.83,4.82,1.26,2.93.58,5.4,1.22,7.42,1.94,2.02.72,3.77,1.96,5.26,3.71,1.49,1.75,2.23,4.16,2.23,7.24,0,2.4-.7,4.56-2.09,6.48-1.39,1.92-3.4,3.43-6.01,4.54-2.62,1.11-5.68,1.66-9.18,1.66-3.84,0-7.24-.62-10.19-1.87Z"/>
    </g>
  </g>
</svg>