<?xml version="1.0" encoding="UTF-8"?>
<svg id="Layer_1" data-name="Layer 1" xmlns="http://www.w3.org/2000/svg" viewBox="0 0 1255.51 1255.51">
  <defs>
    <style>
      .cls-1 {
        fill: #1d1d1d;
      }
    </style>
  </defs>
  <path class="cls-1" d="M930.03,936.14l-210.27-577.02c-1.99-5.47-7.19-9.11-13.01-9.11h-199.29c-5.81,0-11,3.63-13,9.09l-211.09,577.03c-3.3,9.03,3.39,18.6,13.01,18.6h169.16c5.99,0,11.3-3.85,13.16-9.54l13.3-40.65,22.79-76.23c1.86-6.21-.35-12.91-5.54-16.8l-87.89-65.86c-11.9-8.92-5.58-27.85,9.28-27.84l110.13.06c6.96,0,13.06-4.64,14.91-11.35l34.7-125.82c4.15-15.03,25.41-15.17,29.76-.19l36.6,126.12c1.92,6.61,7.97,11.15,14.85,11.15h111.26c14.97,0,21.2,19.17,9.08,27.98l-90.31,65.61c-5.42,3.94-7.68,10.92-5.61,17.29l34.49,106.17c.15.47.28.94.39,1.4l2.93,8.96c1.86,5.69,7.17,9.54,13.16,9.54h170.04c9.61,0,16.3-9.56,13.01-18.59Z"/>
</svg>