<?xml version="1.0" encoding="UTF-8"?>
<svg id="Layer_6" xmlns="http://www.w3.org/2000/svg" version="1.1" viewBox="0 0 225 170.2">
  <!-- Generator: Adobe Illustrator 29.5.1, SVG Export Plug-In . SVG Version: 2.1.0 Build 141)  -->
  <defs>
    <style>
      .st0 {
        fill: #1d1d1d;
      }

      .st1 {
        fill: #dd4083;
      }
    </style>
  </defs>
  <path class="st0" d="M44.2,53.1h-17l-2.5,7.7H7.9L26.5,9.9h18.4l18.6,51h-16.8l-2.5-7.7ZM40.3,41.1l-4.6-14.2-4.6,14.2h9.2Z"/>
  <path class="st0" d="M63.2,29.4c1.5-3.1,3.5-5.5,6-7.2,2.5-1.7,5.4-2.5,8.6-2.5s4.9.5,6.8,1.6c1.9,1.1,3.3,2.6,4.4,4.4V7.6h16v53.3h-16v-5.5c-1,1.9-2.5,3.3-4.4,4.4s-4.2,1.6-6.8,1.6-6-.8-8.6-2.5c-2.5-1.7-4.6-4.1-6-7.2-1.5-3.1-2.2-6.8-2.2-11.1s.7-8,2.2-11.1h0ZM87.3,35.5c-1.1-1.2-2.5-1.8-4.2-1.8s-3.1.6-4.2,1.8c-1.1,1.2-1.7,2.9-1.7,5s.6,3.8,1.7,5c1.1,1.2,2.5,1.8,4.2,1.8s3.1-.6,4.2-1.8c1.1-1.2,1.7-2.9,1.7-5s-.6-3.8-1.7-5Z"/>
  <path class="st0" d="M130.1,22.1c2.4-1.4,4.8-2.1,7.3-2.1v17.1h-4.5c-3,0-5.2.5-6.7,1.6-1.4,1.1-2.1,2.9-2.1,5.6v16.6h-16V20.2h16v7.5c1.6-2.3,3.6-4.2,6-5.6Z"/>
  <path class="st1" d="M137.9,59.2c-1.7-1.5-2.5-3.4-2.5-5.6s.8-4.2,2.5-5.7c1.7-1.5,3.9-2.3,6.7-2.3s4.9.8,6.6,2.3c1.7,1.5,2.5,3.4,2.5,5.7s-.8,4.1-2.5,5.6c-1.7,1.5-3.9,2.2-6.6,2.2s-5-.7-6.7-2.2Z"/>
  <path class="st0" d="M172.7,20.2v40.6h-16V20.2h16Z"/>
  <path class="st0" d="M185.8,59.5c-2.9-1.2-5.3-3-7-5.2-1.7-2.2-2.7-4.7-2.9-7.5h15.3c.2,1.2.7,2.1,1.6,2.7.8.6,1.9.9,3.2.9s1.5-.2,1.9-.5.7-.8.7-1.3c0-.9-.5-1.6-1.5-1.9-1-.4-2.7-.8-5.1-1.3-2.9-.6-5.3-1.2-7.2-1.9-1.9-.7-3.6-1.8-5-3.5-1.4-1.6-2.1-3.9-2.1-6.8s.7-4.8,2-6.8c1.3-2,3.3-3.7,5.9-4.8,2.6-1.2,5.7-1.8,9.4-1.8,5.5,0,9.8,1.3,12.9,4,3.1,2.7,5,6.2,5.6,10.5h-14.2c-.2-1.1-.7-2-1.5-2.6-.8-.6-1.8-.9-3.1-.9s-1.4.2-1.9.5-.6.8-.6,1.4.5,1.4,1.5,1.8c1,.4,2.6.8,4.8,1.3,2.9.6,5.4,1.2,7.4,1.9s3.8,2,5.3,3.7c1.5,1.8,2.2,4.2,2.2,7.2s-.7,4.6-2.1,6.5c-1.4,1.9-3.4,3.4-6,4.5-2.6,1.1-5.7,1.7-9.2,1.7s-7.2-.6-10.2-1.9h0Z"/>
</svg>