<?xml version="1.0" encoding="UTF-8"?>
<svg id="Layer_1" data-name="Layer 1" xmlns="http://www.w3.org/2000/svg" viewBox="0 0 992 897.21">
  <defs>
    <style>
      .cls-1 {
        stroke-width: 4px;
      }

      .cls-1, .cls-2 {
        fill: #dd4083;
      }

      .cls-1, .cls-2, .cls-3 {
        stroke-miterlimit: 10;
      }

      .cls-1, .cls-3 {
        stroke: #000;
      }

      .cls-2 {
        stroke: #1a1a1a;
        stroke-width: 15px;
      }

      .cls-3 {
        fill: #1a1a1a;
      }
    </style>
  </defs>
  <g id="Layer_13" data-name="Layer 13">
    <polyline class="cls-3" points="22.29 483.95 275.4 894.71 991.4 896.71 952.4 668.71 623.42 256.17 22.29 483.95"/>
  </g>
  <g id="Layer_10" data-name="Layer 10">
    <path class="cls-2" d="M638.11,304.73c-2.84-31.51-20.15-60.64-45.89-80.71-38.87-29.12-93.29-29.14-136.77-2.48-1.9,1.02-3.24,1.34-3.61.47,11.23-39.25,26.97-78.01,39.71-117.06,7.66-18.64,9.72-43.96,2.12-59.46-8.81-20.37-26.56-32.89-47.7-36.59-17.11-3.26-34.98-1.2-48.49,10.15-41.48,38.72-60.17,120.67-90.7,184.91-1.75,4.02-7.59,26.7-11.88,26.25-22.69-5.65-44.16-9.34-68.76-8.95-12.56.15-25.22,1.49-38.24,2.95-38.8,6.37-95.52,35.23-131.35,82.19-19.25,22.22-38.63,50.83-45.07,83.96-20.39,92.11,39.7,160.1,129.84,157.98,98.55-4.02,195.71-171.21,265.12-200.44,63.24-23.3,120.84,29.26,107.88,97.61-2.65,23.5-4.88,41.77-7.26,62.76-1.99,16.12-2.11,26.01-.09,30.6,7.71,20.24,29.15,35.6,49.74,40.16,15.03,3.21,29.64,3.44,47.62-5.2,30.11-14.49,29.64-61.13,32.64-97.2,1.95-54.02,4.15-119.86,1.14-171.9h0ZM265.9,320.21c.28,9.75-3.74,20.88-10.4,32.49-.21.38-.42.75-.62,1.12-8.64,14.02-22.9,32.15-35.28,40.03-18.92,12.55-47.71,8.74-56.16-14.31-6.44-19.72.28-41.29,13.16-58,5.86-8.2,13.85-15.26,23.32-20.72.48-.28.97-.55,1.45-.82,15.45-8.57,32.91-6.08,49.53-.79,7.94,2.59,15.25,8.07,15,16.62v4.38h0Z"/>
    <path class="cls-1" d="M256.13,540.39c-.84-3.95,2.01-7.46,4.52-10.33,4.71-5.22,13.26-12.57,19.94-18.74,9.17-8.33,17.4-16.67,26.19-25.4,10.88-10.62,21.52-21.43,31.62-30.59,6.1-5.07,21.92-21.95,25.5-7.86,5,14.57,1.91,70.09-16.52,90.43-8.66,10.21-21.54,15.77-35.82,17.63-11.79,1.54-21.78.43-33.46-2.22-7.21-1.67-20.23-5.92-21.94-12.81l-.02-.1h-.01Z"/>
  </g>
</svg>