<svg width="121" height="181" viewBox="0 0 121 181" fill="none" xmlns="http://www.w3.org/2000/svg">
<path d="M0.299316 150.5C0.299316 133.931 13.7757 120.5 30.3997 120.5H60.5V150.5C60.5 167.069 47.0236 180.5 30.3997 180.5C13.7757 180.5 0.299316 167.069 0.299316 150.5Z" fill="#24CB71"/>
<path d="M60.5 0.5V60.5H90.6003C107.224 60.5 120.701 47.0685 120.701 30.5C120.701 13.9315 107.224 0.5 90.6003 0.5L60.5 0.5Z" fill="#FF7237"/>
<ellipse cx="90.3495" cy="90.5" rx="30.1003" ry="30" fill="#00B6FF"/>
<path d="M0.299316 30.5C0.299316 47.0685 13.7757 60.5 30.3997 60.5H60.5L60.5 0.499996H30.3997C13.7757 0.499996 0.299316 13.9315 0.299316 30.5Z" fill="#FF3737"/>
<path d="M0.299316 90.5C0.299316 107.069 13.7757 120.5 30.3997 120.5L60.5 120.5L60.5 60.5H30.3997C13.7757 60.5 0.299316 73.9315 0.299316 90.5Z" fill="#874FFF"/>
</svg>
