<svg width="197" height="197" viewBox="0 0 197 197" fill="none" xmlns="http://www.w3.org/2000/svg">
<path d="M27.3184 176.992L11.543 0H185.072L169.297 176.992L98.1152 197" fill="#DD4083"/>
<path d="M98.5 181.609L155.83 165.834L169.297 14.2363H98.5" fill="#E95B98"/>
<path d="M98.5 80.0312H69.6426L67.7188 57.7148H98.5V36.168H98.1152H43.8633L44.248 41.9395L49.6348 101.963H98.5V80.0312ZM98.5 136.592H98.1152L73.875 130.051L72.3359 112.736H60.793H50.7891L53.4824 146.98L98.1152 159.293H98.5V136.592Z" fill="#EBEBEB"/>
<path d="M98.1152 80.0312V101.963H125.049L122.355 130.051L98.1152 136.592V159.293L142.748 146.98L143.133 143.133L148.135 85.8027L148.904 80.0312H142.748H98.1152ZM98.1152 36.168V49.6348V57.7148H150.828L151.213 53.0977L152.367 41.9395L152.752 36.168H98.1152Z" fill="white"/>
</svg>
