<svg width="171" height="209" viewBox="0 0 171 209" fill="none" xmlns="http://www.w3.org/2000/svg">
<g clip-path="url(#clip0_114_64)">
<path d="M84.4818 0.50142C77.4307 0.534315 70.6972 1.13811 64.7723 2.19076C47.3183 5.28679 44.1494 11.7671 44.1494 23.7178V39.501H85.3952V44.7621H44.1494H28.6702C16.683 44.7621 6.18672 51.9963 2.9036 65.7581C-0.883425 81.5325 -1.0514 91.3759 2.9036 107.847C5.8355 120.107 12.8373 128.843 24.8244 128.843H39.0057V109.922C39.0057 96.2533 50.7847 84.1961 64.7723 84.1961H105.97C117.438 84.1961 126.593 74.7154 126.593 63.1517V23.7178C126.593 12.4946 117.163 4.06385 105.97 2.19076C98.8846 1.00652 91.5329 0.468524 84.4818 0.50142ZM62.1764 13.1956C66.4368 13.1956 69.916 16.7459 69.916 21.1113C69.916 25.4613 66.4368 28.9788 62.1764 28.9788C57.9007 28.9788 54.4368 25.4613 54.4368 21.1113C54.4368 16.7459 57.9007 13.1956 62.1764 13.1956Z" fill="url(#paint0_linear_114_64)"/>
<path d="M131.737 44.7622V63.1519C131.737 77.4091 119.698 89.409 105.97 89.409H64.7723C53.4876 89.409 44.1494 99.1064 44.1494 110.453V149.887C44.1494 161.11 53.8693 167.712 64.7723 170.932C77.8284 174.786 90.3485 175.483 105.97 170.932C116.354 167.913 126.593 161.838 126.593 149.887V134.104H85.3952V128.843H126.593H147.216C159.203 128.843 163.67 120.448 167.839 107.847C172.145 94.8745 171.962 82.3995 167.839 65.7583C164.876 53.7766 159.218 44.7622 147.216 44.7622H131.737ZM108.566 144.626C112.842 144.626 116.306 148.144 116.306 152.494C116.305 156.859 112.842 160.409 108.566 160.409C104.305 160.409 100.826 156.859 100.826 152.494C100.826 148.144 104.305 144.626 108.566 144.626Z" fill="url(#paint1_linear_114_64)"/>
<path opacity="0.44382" d="M85.8631 208.5C116.389 208.5 141.136 203.682 141.136 197.739C141.136 191.796 116.389 186.978 85.8631 186.978C55.3368 186.978 30.5903 191.796 30.5903 197.739C30.5903 203.682 55.3368 208.5 85.8631 208.5Z" fill="url(#paint2_radial_114_64)"/>
</g>
<defs>
<linearGradient id="paint0_linear_114_64" x1="-5.13837e-07" y1="0.5" x2="95.4316" y2="81.4928" gradientUnits="userSpaceOnUse">
<stop stop-color="#DD4083"/>
<stop offset="1" stop-color="#DD4083" stop-opacity="0.79"/>
</linearGradient>
<linearGradient id="paint1_linear_114_64" x1="107.575" y1="151.167" x2="73.2704" y2="103.29" gradientUnits="userSpaceOnUse">
<stop stop-color="#34332F"/>
<stop offset="1"/>
</linearGradient>
<radialGradient id="paint2_radial_114_64" cx="0" cy="0" r="1" gradientUnits="userSpaceOnUse" gradientTransform="translate(85.8631 197.739) rotate(-90) scale(10.7613 47.1095)">
<stop stop-color="#B8B8B8" stop-opacity="0.498039"/>
<stop offset="1" stop-color="#7F7F7F" stop-opacity="0"/>
</radialGradient>
<clipPath id="clip0_114_64">
<rect width="171" height="208" fill="white" transform="translate(0 0.5)"/>
</clipPath>
</defs>
</svg>
